<svg xmlns="http://www.w3.org/2000/svg" viewBox="0 0 76.47 85.76"><title>Ativo 5</title><g id="Camada_2" data-name="Camada 2"><g id="Camada_5" data-name="Camada 5"><path d="M71.63,17.88a9,9,0,0,1,3.57,3.56,10.14,10.14,0,0,1,1.27,5v33a10.14,10.14,0,0,1-1.27,5,9,9,0,0,1-3.57,3.56L43.13,84.42a9.35,9.35,0,0,1-4.9,1.34,9.17,9.17,0,0,1-4.9-1.34L4.9,67.94a9.19,9.19,0,0,1-3.6-3.56,9.85,9.85,0,0,1-1.3-5v-33a9.85,9.85,0,0,1,1.3-5,9.19,9.19,0,0,1,3.6-3.56L33.33,1.4a9.28,9.28,0,0,1,9.8,0Zm3.06,8.39a7.74,7.74,0,0,0-1.09-4,8,8,0,0,0-2.92-3L42.3,2.86a7.46,7.46,0,0,0-4-1.14,7.21,7.21,0,0,0-2,.28,7,7,0,0,0-1.91.86L6,19.34a7.85,7.85,0,0,0-2.9,3,8.09,8.09,0,0,0-1,4v33a8.24,8.24,0,0,0,1,4,7.92,7.92,0,0,0,2.9,3L34.42,82.7a7,7,0,0,0,1.91.86,7.23,7.23,0,0,0,2,.29,7.38,7.38,0,0,0,4-1.15L70.68,66.23a8,8,0,0,0,2.92-3,7.88,7.88,0,0,0,1.09-4ZM30.54,55a10.72,10.72,0,0,1,2.51,2,16.49,16.49,0,0,1,2.07,2.8A15,15,0,0,1,36.52,63a12,12,0,0,1,.5,3.31v7.7a5.48,5.48,0,0,1-1,3.53,3.29,3.29,0,0,1-2.68,1.24,6.09,6.09,0,0,1-2.92-.89L4.07,62.47v-7.7L28.88,69.41l.32.16a.78.78,0,0,0,.32.09c.59,0,.89-.36.89-1.08v-4A2.87,2.87,0,0,0,30,63.11a3.63,3.63,0,0,0-1.08-1.21L10.62,51.34a9.76,9.76,0,0,1-2.57-2.07,16.12,16.12,0,0,1-3.47-6.11,11.23,11.23,0,0,1-.51-3.27V32.13a5.52,5.52,0,0,1,1-3.53A3.17,3.17,0,0,1,7.7,27.36a6.26,6.26,0,0,1,2.92.89L37.09,43.77v7.7L12.34,36.9a3.08,3.08,0,0,1-.38-.16.77.77,0,0,0-.38-.1c-.55,0-.83.36-.83,1.08v4a3,3,0,0,0,.45,1.49,2.77,2.77,0,0,0,1.14,1.18Z"/><path d="M65,18.77q2.67,1.65,2.67,3.81a3.9,3.9,0,0,1-.63,2.1,5,5,0,0,1-2,1.72L45,37.72A9.13,9.13,0,0,1,41.92,39a18,18,0,0,1-3.56.35A17.54,17.54,0,0,1,34.83,39a9.31,9.31,0,0,1-3.09-1.25L11.83,26.4a5.48,5.48,0,0,1-2.1-1.72,3.67,3.67,0,0,1-.7-2.1c0-1.4.94-2.67,2.8-3.81L31.74,7.51a12.94,12.94,0,0,1,3.15-1.18,15.27,15.27,0,0,1,7,0A12.71,12.71,0,0,1,45,7.51L64.83,18.77Zm-8.14,4.7a1.84,1.84,0,0,0,.44-.44.79.79,0,0,0,.2-.45.92.92,0,0,0-.2-.57,1.14,1.14,0,0,0-.44-.38L40,12a4.15,4.15,0,0,0-1.59-.38,3,3,0,0,0-1.65.38L19.85,21.63a1,1,0,0,0-.57.95,1.08,1.08,0,0,0,.12.45,1.12,1.12,0,0,0,.45.44l16.86,9.67a1.87,1.87,0,0,0,.73.26,6.36,6.36,0,0,0,.92.06A3.7,3.7,0,0,0,40,33.14Z"/><path d="M65.65,27.93a6.35,6.35,0,0,1,2.9-.83,3.25,3.25,0,0,1,2.65,1.27,5.64,5.64,0,0,1,1,3.57l-.12,30.6-6.56,3.88.13-28.7c0-.72-.27-1.08-.83-1.08a.9.9,0,0,0-.35.1,4.3,4.3,0,0,1-.41.16l-3.43,2A2.59,2.59,0,0,0,59.54,40a3.24,3.24,0,0,0-.44,1.56L59,70.23l-6.55,3.88.06-28.69a1.18,1.18,0,0,0-.25-.76.74.74,0,0,0-.57-.32,2,2,0,0,0-.77.26l-3.37,2a2.42,2.42,0,0,0-1.14,1.14,3.23,3.23,0,0,0-.45,1.53l-.19,28.69-6.55,3.95.06-30.73a11.35,11.35,0,0,1,.51-3.28,14.38,14.38,0,0,1,1.43-3.21,17.91,17.91,0,0,1,2.13-2.83,11.74,11.74,0,0,1,2.61-2.13l3.5-2A10.14,10.14,0,0,1,51,36.9a4.24,4.24,0,0,1,1.46-.26q2.55,0,3.25,2.87a16.91,16.91,0,0,1,2.45-5.41,13.06,13.06,0,0,1,4-4l3.62-2.16Z"/></g></g></svg>